<svg xmlns="http://www.w3.org/2000/svg" width="24" height="24" fill="none" viewBox="0 0 24 24">
  <g fill-rule="evenodd">
    <path fill="#a90093" d="M10.838 14.536Q12.303 16 14.373 16t3.535-1.464l4-4q1.697-1.638 1.585-3.782-.1-1.902-1.535-3.338-1.436-1.436-3.338-1.535-2.144-.112-3.794 1.597c-.092.095-1.225 1.362-1.225 1.362l1.55.587a.7.7 0 0 0 .666-.13c.173-.163.373-.352.448-.43q1.017-1.053 2.251-.989 1.135.06 2.028.952.892.893.952 2.028.064 1.234-1.002 2.264l-4 4q-2.121 2.12-4.242 0c-.031-.032-1.323-1.15-2.151-1.867a1.02 1.02 0 0 0-1.337.028l-.473.444a.358.358 0 0 0 .008.539c.698.618 2.385 2.116 2.54 2.27m-.925-7.454 4.28 1.711q.059.024.122.028t.125-.012q.06-.015.114-.049.054-.033.095-.082l.824-.989-4.278-1.71q-.059-.023-.122-.028-.063-.004-.124.012-.061.015-.115.049-.053.033-.094.082zm1.153-1.4 4.277 1.711q.06.023.122.028.064.004.125-.012.061-.015.115-.049t.094-.082l.824-.989-4.275-1.71q-.06-.023-.122-.028-.063-.004-.125.012-.061.015-.115.049-.053.033-.094.082z"/>
    <path fill="#0063a9" d="M13.162 9.464Q11.697 8 9.627 8T6.092 9.464l-4 4Q.395 15.102.507 17.246q.1 1.901 1.535 3.338 1.436 1.436 3.338 1.535 2.144.112 3.794-1.597c.092-.095 1.225-1.362 1.225-1.362l-1.55-.587a.7.7 0 0 0-.666.13 19 19 0 0 0-.448.43q-1.018 1.053-2.251.989-1.135-.06-2.028-.952-.892-.893-.952-2.028-.064-1.234 1.002-2.264l4-4q2.121-2.12 4.242 0c.031.032 1.323 1.15 2.151 1.867a1.02 1.02 0 0 0 1.337-.028l.473-.444a.358.358 0 0 0-.008-.539 238 238 0 0 1-2.54-2.27m.925 7.454-4.28-1.711q-.059-.024-.122-.028t-.125.012q-.06.015-.114.049-.054.033-.095.082l-.824.989 4.278 1.71q.059.023.122.028.063.004.124-.012.061-.015.115-.049.053-.033.094-.082zm-1.153 1.4-4.277-1.711q-.06-.023-.122-.028-.064-.004-.125.012-.061.015-.115.049t-.094.082l-.824.989 4.275 1.71q.06.023.122.028.063.004.125-.012.061-.015.115-.049.053-.033.094-.082z"/>
  </g>
</svg>