<svg xmlns="http://www.w3.org/2000/svg" width="512" height="512" viewBox="0 0 512 512"><path fill="#2c1e50" fill-rule="evenodd" d="M238.1 86.5c19.52-14.578 39.032-29.165 58.556-43.737L339.7 14.6l28.4-13.3 7.5-1.3 7.3 2.3 2.9 6.5c-.48 3.152-.919 6.317-1.426 9.462-7.096 17.034-14.207 34.064-21.294 51.102L353.4 100.2c-.83 6.545-1.694 13.087-2.505 19.633L349.7 153c18.216 10.982 36.443 21.948 54.653 32.94L442.7 215c5.077 5.187 10.175 10.356 15.24 15.554 2.323 3.239 4.684 6.457 6.986 9.708L470.4 253.5v10c-.96 1.035-1.875 2.13-2.861 3.127-1.67.718-3.326 1.497-5.006 2.177-7.5.425-15 .883-22.5 1.288-12.32-1.577-24.646-3.126-36.964-4.72q-25.485-5.285-50.969-10.572c6.371 17.422 12.755 34.84 19.118 52.264 3.433 12.157 6.893 24.306 10.308 36.467 2.258 11.345 4.533 22.688 6.78 34.035 1.062 10.6 2.145 21.2 3.192 31.8-.34 12.9-.653 25.802-1.01 38.7-1.608 8.764-3.184 17.538-4.812 26.296-2.042 5.23-4.05 10.476-6.113 15.694-1.341 1.993-2.651 4.012-4.011 5.99L366.2 504.9l-17 6-18.7-1.6-18.6-7.9c-5.612-4.253-11.248-8.48-16.844-12.75-3.061-3.504-6.144-6.992-9.192-10.506-2.3-3.658-4.645-7.293-6.92-10.966-3.46-7.636-6.945-15.261-10.39-22.903L251.4 397.1l-4.9-8.8-5-2.8c-1.379.556-2.793 1.055-4.149 1.645-2.892 2.707-5.815 5.388-8.689 8.11-13.403 19.631-26.793 39.271-40.204 58.897-5.138 6.262-10.259 12.54-15.407 18.794-5.938 5.593-11.856 11.213-17.807 16.79L134.9 502.8l-23.2 7.8-26.4.8-13-3.4-10.4-6.7c-2.705-3.223-5.447-6.422-8.13-9.66-1.957-3.97-3.952-7.926-5.886-11.905-1.727-7.134-3.48-14.264-5.19-21.401-.493-5.39-1.023-10.777-1.492-16.168.108-8.499.183-17 .312-25.499.906-8.699 1.787-17.402 2.71-26.098 2-11.11 3.983-22.225 5.994-33.333L66.4 299.9c5.947-13.718 11.875-27.445 17.833-41.158 5.385-9.315 10.743-18.647 16.144-27.951 4.04-5.761 8.051-11.545 12.11-17.292L139.7 182.2c-12.804-6.325-25.619-12.629-38.415-18.967-8.877-5.161-17.77-10.3-26.637-15.475L59.7 135.7l-3.4-5.7c.023-1.016-.047-2.058.035-3.057L60.4 120.4c2.19-1.638 4.358-3.312 6.561-4.926 2.87-1.225 5.728-2.484 8.604-3.688 5.201-1.094 10.399-2.212 15.602-3.29 7.944-.528 15.888-1.09 23.833-1.596 14.511-.027 29.023-.08 43.533-.09l42.267 2.89zM212 210c-10.42 3.647-20.8 7.903-29.817 14.38-5.275 3.772-9.819 8.572-13.162 14.136-2.149 3.497-3.971 7.195-6.317 10.567-4.07 7.962-6.173 16.844-6.74 25.74-.298 5.859-.022 11.897 2.044 17.446.768 2.106 2.003 4.008 3.523 5.648 2.86 3.458 6.057 6.742 10.015 8.94 6.403 3.615 13.75 5.056 20.953 6.064 9.876 1.288 19.852 1.557 29.801 1.579 10.476-1.81 20.998-3.921 30.908-7.872 5.538-2.28 11.116-5.278 14.73-10.209 2.12-2.793 3.19-6.174 4.862-9.219 1.493-9.914.408-20.18-3.064-29.58-4.57-12.516-12.634-23.425-21.633-33.115-.844-.734-1.393-1.926-2.555-2.181z"/></svg>