<svg xmlns="http://www.w3.org/2000/svg" width="512" height="512" fill="none" style="-webkit-print-color-adjust:exact" viewBox="0 0 512 512"><g clip-path="url(#frame-clip-19143d7c-b9a0-8033-8004-20dd684c0c42-rumext-id-1)"><rect width="512" height="512" rx="20" ry="20"/><path d="m177.8.2-19.1 2.3-24.7 8-17.6 9.3-21.6 16-19 19.6-12.1 16.7-12.6 24.4-6.5 19.6-4.3 27.3 1 28.3 6.9 28.6 11.4 25L75 247.7l19 19 22.4 15 25.2 10.4-8.6 54.5-20.5-8-19.3-3.6-21.1 1-16.8 4.5-16.9 8.9-12.1 10.3-11 13.8-9.2 18.1L1.3 410 .2 429.7l3.3 20.1 5.4 14.9 9.5 16 10.9 11.6 14.8 9.3 14.5 4.7 24.4 2 22.7-2.4 13.3-3.7 14.8-8.3 12.2-12.1 12.8-19.9 10.2-22.3 15.1-41.2 11.5-19.7 12.1-11.3 18.3-10.7 19.3-6.7 17.4-2.5-21.7-7.1-17.9-1.9-19.9 1.8-13.9 4.2-20.6 12-13 12.6-12.2 16.8-24 44.3-15 16.8-9.3 3.9-11-1.8-8.1-5.5-6.3-10-1.9-7 .1-7.8 3.1-8.4 4.9-6.5 7.9-5 10.1-1.4 10.2 2.1 9.9 5.5 17.3-32.7 16.1-19.9 18.6-114.4-11.5 3.2-12.6 1.3-11.5-1-10.7-3-10.6-5.5-8.9-8.3-3.7-7.3 2.3-6.2 3.6-2 4 .4 10.5 9.6 7.8 4.8 9.1 2.9 10.3.6 22.8-5.4 39.3-14.9 12.6-1.8 6.6 2.7 5.4 5.3 9.8 19.3 3.5-10.3 4.8-4.8 5.6 1 7.5 7.7 1.9-10.1 4.6-4.8 6.3.6 7.2 6.2-8.6-16.3-9.9-11.7-10.9-7.6-11.5-4.3-12-1.5-12 .5-45.1 11.2-10 1.2-11.6-1.6-11.9-6.2-11.3-12.4-7.4-14.6-.5-11.9 1.9-15.9 4.6-13.8 6.8-11.8 14.9-15.3 21.2-11.5 18.9-3.5 22.8 2 23.6 9.4-5.2 7.3-6.4 4.4-9.4 2.5-15.3 1.6 11.8 5.8 13.3 3.3 12.6-.2 15-3.9-2.1 13.6-12.2 16.3 31.8-2.1 9.2-2.6-4.8-9.1-2-8.6.2-27.5 11.4 8.2 11.2 3.5-1-9.9 1.3-11 7.5-20.6 10.8 7.6 11.9 3.4.4-13.6-22.1-7.5-45-22.5C195.5-3.1 202.5 2.7 177.8.2Zm244.4 30.6-10.7 21.7-10.1-2.1L392 53l-7.3 6.6-3.6 9.7-25.3-13.4-8.9-8.1-3.7-6.7-3.4 8.3-1.7 10.6.3 11.4 2.6 11-18.9-2.7-13.6-6.4-1.7 11.7 1.2 12.3 3.8 11.6 4.8 6.7-21.3-2.8-12.9-7.3 3.4 11 8.4 13.8 9.5 10.4 12.2 9 14.7 6.1 11.1 1.8 19-1.3 58.5-13.3 18.6-.3 9.7 3.5 6.6 7.5 2.9 12.4-.1 8.2 16.3-19.5 9.5 23.1 2.8-32 13.4 2.2-.3-18.5-17.6 2.3-17.6.2-17.5-2.2-17.1-4.3 12-10 14.5-5.3 15.2-1.6 26.8 3.5 11.2-5.3 2.8-4.1.5-5.7-1.5-4.7-4.7-7-4.8-2.1-6.9 3.9-6.7 11.5-5.6-3.7c-44.5-31.8-46.2-36.4-59.4-64.2Zm-17.9 27.1c15.9-1 33.8 13.2 37.5 26.6 12.3.1 14.2 5.6 11 12.3-8 5.6-21.9 3.3-27.6-14.6l-5.1-5.4-6.6-3.5-13.9-2.9-2.2-3.7.3-4.5 2.8-3.3zm5.5 23.3c8.8-.5 13.9 11.8 7.3 17.6l-7.3 3.1-7.3-3-3.1-7.3 3-7.3zm-230.6 64.9-13.5 13.1-3.9 7.8-1.3 8.7 5.9.7 10.1-2 2.1-6.9 4.6-5.6 7.7-4.6 8.5-1.4 175 30.8-32.7 198-96-16.6-20.3 8.6-15.3 11.5-7.4 11.4-9.3 23.4 120.5 20.1 7.8-45.6 32 5.7 13-76.7 7.5 13.6 4.4 11.5 3.6 23.4-3.6 19.2-8.9 14.3-15.3 11.3-22.1 7.6-4.5 27-4.6 4.8-3.7.4L188 437.5l-8.7 20.8 30.1 20.3 28.4 14.4 25.3 8.5 27.7 4.6 32-.3 32.2-5.3 28.3-9.7 22.6-12.5 12.5-9.8 11.4-11.6 10-13.4 8.4-15.3 6.4-17.3 3.6-15.6 2.1-33.7-1.9-19.2L453 319l-5.8-15.8-9.4-18.3-10.9-15.5-15.4-16.5-14.6-11.8-14.4-8.5 9.7-58-22.7-4.1-20.3 2.3-16.9-1.5-16.4-5.4-12.6-7.4-100.4-18.1-11.8.8zm26.7 77-17.4 103.4 22.1-4.8 25 .3 13.8-82.2-6 4-5.9.1-6.4-5-12-18.7-5.3-1z" style="fill:#002d69"/></g></svg>