<svg xmlns="http://www.w3.org/2000/svg" width="512" height="512" fill="none"><g clip-path="url(#a)"><rect width="512" height="512" rx="20" ry="20"/><path fill="#f6ae2d" fill-rule="evenodd" d="m479.8 0 3.9 1.2 2 3.6 12 123 8 105 .1 52.2-6 45.3-11.7 40.4-16.9 35.2-22 30.2-26.5 25.1-14.9 10.7-32.7 17.5-36.5 12.6-19.5 4.4-41.3 5h-43.6l-21-1.9-39.8-7.5-18.7-5.7-34.7-15-15.8-9.4-28.7-22.6-24.3-27.7-10.4-15.7-16.9-35.2-6.6-19.6-8.8-42.8L6.2 285l-.7-30.3L7 214.3l34.9 20.5 2.1 40.5 5.7 27 5.8 16.1 7.4 14.3 14.3 17.9 18.3 12.9 22.2 7.5 16.4.8 8-1.4 15.5-5.9 21.9-16.2 13.4-15.1 12.3-18.2 11.1-20.8L226 271l8.2-25.1 6.6-26.6 26.1-14.1 24.9-15.9 24-17.8 30.7-26.3 36.7-37L476.4 1.8zM188.1 363.3l-4.5 2.6-.7 6.4 2.5 12.3 4.4 9.5 5.5 6.5 7.3 5.4 16.4 4.9 11.2-1.2 10.4-4.6 7.3-6.2 6.9-9.5 7.6 11.8 10.2 7.3 15 3.1 14-2.1 9.4-5.3 7.4-8.3 5.2-11.3 3.2-15-3.1-4.7-5.5.6-6.1 19.7-5.9 9.1-8.3 5.2-12.1 1.4-9.8-2.6-6.4-5-7.3-14.1-2.9-13.2-2.4-2.1-3.2-.2-3.9 3.1-1.7 12.3-5.9 10.4-11.1 8.6-11.7 2.1-9.9-2.5-8.8-6.6-5.4-10.1-2.4-14.4zm211-133.8c-27.1-1.2-61.4 22.3-65.1 55.3-7.6 21.9 13 63.1 39.4 71.5 31.6 11.4 58.8 4.8 81.8-26.1 14.3-24.1 14.6-57.2-9.4-81.4-13.4-14.4-31.5-18.6-46.7-19.3Zm0 14.9 19.9 4 16.2 11 11 16.2 4 19.9-4 19.9-11 16.2c-13.2 14-37.3 19.3-56 10.9-18.3-7.7-31.2-25.9-31.2-47 0-21.2 12.9-39.3 31.2-47.1zm26.6 23.4-9 3.8-3.8 9 3.8 9 9 3.7 9-3.7 3.8-9-3.8-9zM45.8 23.3l4.4-.9 4.6 2.1 58.1 67.2 25.4-9.8c42.1-14.8 99.5-20.3 146.1-16.9l34.1 3.7 38.6 8.1 29.8 9.8-37.9 40.1-39.8 35.2-42.4 29.7-45.7 23.9L49 225.2 28 214 7.9 200.3 22.1 39.6l3.1-4.6zM463.1 54l-36.3 45.8 42 14.7zm-415.6.7L41 114.4 83.3 100z" style="fill:#f6ae2d"/></g></svg>