<svg xmlns="http://www.w3.org/2000/svg" width="512" height="512" fill="none" viewBox="0 0 1024 1024"><g fill="#f6788a" fill-rule="evenodd"><path d="M530.3 438.9H54.9C24.6 438.9 0 463.5 0 493.7v475.4c0 30.3 24.6 54.9 54.9 54.9h475.4c30.3 0 54.8-24.6 54.8-54.9V493.7c0-30.2-24.5-54.8-54.8-54.8Zm-384 438.8c-40.4 0-73.2-32.7-73.2-73.1s32.8-73.2 73.2-73.2 73.1 32.8 73.1 73.2-32.7 73.1-73.1 73.1Zm182.8 0c-40.4 0-73.1-32.7-73.1-73.1s32.7-73.2 73.1-73.2 73.2 32.8 73.2 73.2-32.8 73.1-73.2 73.1Z"/><path d="M530.3 438.9H54.9C24.6 438.9 0 463.5 0 493.8v475.3c0 30.3 24.6 54.9 54.9 54.9h475.4c30.3 0 54.8-24.6 54.8-54.9V493.8c0-30.3-24.5-54.9-54.8-54.9Zm-384 438.8c-40.4 0-73.2-32.7-73.2-73.1s32.8-73.2 73.2-73.2 73.1 32.8 73.1 73.2-32.7 73.1-73.1 73.1Zm182.8 0c-40.4 0-73.1-32.7-73.1-73.1s32.7-73.2 73.1-73.2 73.2 32.8 73.2 73.2-32.8 73.1-73.2 73.1Zm201-512.1H278.7c-30.3 0-54.8-24.6-54.8-54.8V59.4c0-48.9 59-73.3 93.6-38.8L568.9 272c34.5 34.5 10 93.6-38.8 93.6Zm438.3 439H713.8c-30.7 0-55.5-24.9-55.5-55.5V494.5c0-49.4 59.8-74.2 94.8-39.2l254.5 254.5c35 35 10.2 94.8-39.2 94.8Zm0-438.9H713.8c-30.7 0-55.5-24.9-55.5-55.5V55.6c0-49.4 59.8-74.2 94.8-39.2l254.5 254.5c35 35 10.2 94.8-39.2 94.8Z"/></g></svg>