<svg xmlns="http://www.w3.org/2000/svg" width="512" height="512" viewBox="0 0 512 512"><path fill="#1872a2" d="m435.4 0 24.2 3.9 11 4.7 14.6 9.9 12 12.9 6.2 10 6.4 16.8 1.9 12.2v371.2l-5.7 23.6-12.5 20-12.9 12-15.4 8.8-17.4 5-12.4 1-365-.3-23.6-5.7-20-12.5-12-12.9L6 465.2l-5-17.4-1-12.4.3-365L6 46.8l12.5-20 12.9-12 10-6.2 16.8-6.4L70.4.3zm-7.8 20h-79.7v123.2H184v103.4h163.9v143.1H184V493l250.4-.2 14.9-3 13.5-6.1 14.8-12.6 8.1-12.3 4.9-14.2 1.3-10.5-.8-360.2c-7.8-30.4-12.9-31.5-33.4-46.7l-9.3-3.9z"/></svg>