<svg xmlns="http://www.w3.org/2000/svg" width="512" height="512" viewBox="0 0 512 512"><g fill="#0062cc"><path d="m256 320.4 14.4-1.2 20.1-5.8 12.2-6.3 16-12.7 12.6-16 8.8-18.7 4.3-20.7.2-7.7-1.4-2.9-3.2-1.4-35.6.5-2.4 3.1-3.7 18.9-9.9 14.5-14.5 9.9-17.9 3.6-17.8-3.5-14.5-9.9-9.9-14.5-3.8-19-2.4-3.1-35.6-.5-3.2 1.4-1.4 2.9 4.5 28.5 8.8 18.7 12.6 16 16 12.6 12.2 6.3 20.1 5.8z"/><path d="m256 404 27.8-2.2 13.4-2.8 25.6-8.5 23.7-12.3 11-7.4 20-17.3 17.3-20 7.4-11 12.3-23.7 8.5-25.6 2.8-13.4L428 232l-1.4-3.3-3.2-1.4h-33.5l-3.5 1.7-4.9 34.1-10.7 28.4-16.7 24.8-21.9 20.2-17 10.5-18.5 7.9-20 4.9-21 1.7-21-1.7-19.9-4.9-18.6-7.9-17-10.5-21.8-20.2-16.7-24.8-10.7-28.4-5-34.1-3.5-1.7H88.6l-3.2 1.4-1.5 3.3 2.2 27.8 2.7 13.4 8.4 25.6 12.2 23.7 7.4 11 17.2 20 20.1 17.3 11 7.4 23.7 12.3 25.7 8.5 13.5 2.8z"/><path d="M507.3 227.3h-33.4c-2.5 0-4.7 2.2-4.7 4.7 0 117.6-96.1 213.5-213.5 213.5-117.6 0-213.4-95.6-213.4-213.5 0-2.5-2.3-4.7-4.7-4.7H4.7c-2.5 0-4.7 2.2-4.7 4.7 0 141.1 114.9 256 256 256s256-114.9 256-256c0-2.5-2.2-4.7-4.7-4.7Z"/><path d="m140.4 116.2 44.6 16.3 12.2 6.7 9.1 7.4 12.2 15.8 5.2 12.2 2.7 12.9 1.9 29.7 3.1 6.2 6.3 7.9 7.5 5.4 9.9 2.3 8-1.3 9.9-6.4 8-11.8 2.8-31.9 2.7-12.9 5.3-12.3 12-16 7.7-6.4 11.1-6.4 39.5-13.9 17.9-9.1 19.1-13.3 14.1-14.6 9-14.9 4.5-13.9 1.3-14.4-2.6-14.1-25.1-.2-41 5.6-19.4 6-30.4 14-31.2 11-9.7 4.8-9.4 10-4.4 11.8-6.8-15-7.4-6.9-9.7-4.8-36.6-13.2-25.1-11.7-19.4-6-20.3-3.8-20.6-1.8-25.2.2-2.5 11.2.6 14.4 2.9 11.2L91 75.5l9 11.8 10.8 10.2z"/></g></svg>