<svg xmlns="http://www.w3.org/2000/svg" width="512" height="512" viewBox="0 0 512 512"><path fill="#6364ff" d="M169.8 149c-91.6-1.3-47 1.1-62.8 9.4-1.4 75.5 1.2 43.5 9.3 55.6 90.7 1.4 48.8-1.2 63.7-9.4 1.9-77.3-2.1-43.8-10.2-55.6Zm188-149L189 .5l-5 3.7-2 5.2.5 48.6 3.7 5 6 2 168.8-.5 4.5-3.1 2.4-5 .1-47-3.6-6.9zm37 224H285.2l-4.7 1.1-4 3.8-1.5 4.5v45.3l1.1 4.7 3.7 4.1 5.4 1.5h109.6c4.5.7 10.5-5 10.2-9.4 1.9-77.3-2.1-43.8-10.2-55.6Zm-187-149c-91.6-1.3-47 1.1-62.8 9.4-1.4 75.5 1.2 43.5 9.3 55.6 90.7 1.4 48.8-1.2 63.7-9.4 1.9-77.3-2.1-43.8-10.2-55.6Zm187 0c-91.6-1-46.9.4-62.8 10.3-1.3 76.4 1.1 41.6 9.3 54.7 90.7 1.4 48.8-1.2 63.7-9.4 1.9-77.3-2.1-43.8-10.2-55.6Zm-37 372-168.8.5-5 3.7-2 5.2.5 48.6 3.7 5 6 2 168.8-.5 4.5-3.1 2.4-5c2-78.7-2.1-44.3-10.1-56.4Zm-150-75c-91.6-1.3-47 1.1-62.8 9.4-1.4 75.5 1.2 43.5 9.3 55.6 90.7 1.4 48.8-1.2 63.7-9.4 1.9-77.3-2.1-43.8-10.2-55.6Zm187 0c-91.6-1-46.9.4-62.8 10.3-1.3 76.4 1.1 41.6 9.3 54.7 90.7 1.4 48.8-1.2 63.7-9.4 1.9-77.3-2.1-43.8-10.2-55.6Zm0-73c-91.6-1-46.9.4-62.8 10.3-1.3 76.4 1.1 41.6 9.3 54.7 90.7 1.4 48.8-1.2 63.7-9.4 1.9-77.3-2.1-43.8-10.2-55.6Zm-225 0c-91.6-1.3-47 1.1-62.8 9.4-1.4 75.5 1.2 43.5 9.3 55.6 90.7 1.4 48.8-1.2 63.7-9.4 1.9-77.3-2.1-43.8-10.2-55.6Zm0-75c-91.6-1.3-47 1.1-62.8 9.4-1.1 75.5.5 43.5 10.2 55.6 91.6 1.3 47-1.1 62.8-9.4 1.9-77.3-2.1-43.8-10.2-55.6Z"/></svg>