<svg xmlns="http://www.w3.org/2000/svg" width="512" height="512" fill="none" style="-webkit-print-color-adjust:exact" viewBox="0 0 512 512"><g clip-path="url(#frame-clip-e896cdf2-4b36-80a4-8004-193832db4615-rumext-id-1)"><rect width="512" height="512" rx="0" ry="0"/><rect width="377.9" height="512" x="67" rx="0" ry="0"/><path fill="#a22430" d="m135.3 0-7.1 1.7-9.9 5.9-22.5 22-15.9 24.6-6.5 21.1.8 36.2 5.3 22.3 11.7 20.1 9.3 8.9 9.4 6.4L92.3 191l-11.7 22.4-7.8 24-4.6 29.7-1.1 38.3 3.3 37.3 6.5 30.5 11.3 31.5 17.6 31.3 22.5 26 15.8 13.1 14.8 9.6 32.9 14.9 37.7 9.1 27.7 2.9 21 .3 38.4-4.2 33.7-10.7 20-10.9 19-14.9 15.8-17.1 15.6-24.3 10.3-23.3 8.1-28.6 4.6-30.3 1.2-27.2H282.5l26.6 71 47.7-2.4-.5 9.4-3.1 10.5-6.6 10-9.5 8.3-10.4 5.8-14 4.8-20 3.1-20.5.7-23.4-1.3-18.1-3.5-23.4-9.2-15.9-11.4-13.5-15.9-10.5-21.1-6.9-25.8-3.2-30.4.2-41.2 2.9-32.3 3.6-14.3 6.2-13 8.6-9.5 11.7-7.4 14.8-5.4 17.8-3.3 33.5-3.1 18.4.2 16.1 2.1 16.7 4.8 14.9 6.9 12 8.2 12.1 11.6 10 13 6.7 13.2 4.8 13.9 75.4 1.2-5.3-25-12.8-31.5-13.2-22.1-17.6-20.8 9.5-6.1 9.8-9.4 7.6-11.2 5.5-13.2 3.5-16.5 1.2-19-.5-16.2-3.2-10.3-16.3-27.1L397.7 22 379.5 5.2l-7.3-4.1-4.7-.6-4.6 3.2-.8 4.9 15.8 31.7 3.4 14.1 1.5 15.2-1.9 34-3.2 6.6-6.2 5.1-16.7 4-20.6-.5-9.3-4.7-11.5-12.5-7.1-5-9.8-3.1-12.4-.7-11.8 2.3-9.4 5.5-6.8 8.7-3.7 9.3-4.9-11.3-7.4-8.1-9.8-4.8-13.7-1.6-12.1 1.4-9.2 3.9-15.6 15.6-8.1 4.6-11.6 1.5-18.4-1.7-9.1-3.2-5.4-4.7-3.7-7.7-1.3-9.2-.2-27.6 2.3-16.7 6.2-17.8L142.5 9 141 3.4z" style="fill:#a22430"/></g></svg>