<svg xmlns="http://www.w3.org/2000/svg" width="512" height="455" viewBox="0 0 512 455"><path fill="#f60" fill-rule="evenodd" d="m236.3 0 10.4 1.6 7.2 4.6 4.4 7.5 1.5 10.6 39 3.5 27.1 6.4 27.7 11.4 62.6 30.2 14.9 4.5 35.7 7.4 7.4 5.1 4.3 5.4 4.4 10.6-.7 10.8-5.7 10.9-10.7 11.1 13.8 29.7 6.7 22.6 3.6 36.2 2 42.5 16 20.5 3.4 9.2.7 7.9-.5 10.4-2.7 11.6-3.9 8.2-7.1 9 .3 24-2.9 18.1-4.6 10.4-6.7 6.7-10.3 3.4-11.2-1.2-9.4-6.8-6.4-10-9.3 11.4-12.4 8.2-13.9 2.8-10-4-30.9 17.6-33.2 12.9-43 9.4-38.3 2.7-30.6-1.8-37.1-7.6-35.8-13.5-34.4-19.4-14.6 5.5-13.5-.5-12-6.3-10-11.6-13 11.3-12 5-5.6.2-7.1-2.3-8.6-8.2-4.4-15.8 2.4-26.4-8.9-5.5-6.1-7.4-3.8-11.5-.3-11.8 2-10.4 5.2-14 8.3-15.1 11.5-16.2-1.7-33.7 4.5-34 7.6-28.4 12.3-27.4L72 113.9l25.1-26.4 28.2-18.4 24.8-9.1-11.8-9.9-5.8-9.7.5-10.3 5.4-7.9 12.7-5.7 17.1-.3 16.5 5 16.9 9.3 6.6-13.2 8-9.5 9.2-5.7zm24.1 307.5-7.3 6-7.8 2.8-22.2-3-2.4 2c-2.7 5 3.6 16.9 27.8 12.9l11.7-5.3 10.2 4.5 9.1 1.6 14.6-2.9c7.3-3 9.1-10.8 3.8-12.9l-23.4 3.1-6.3-2.7zm-99.9-121.3c-32.6-2.4-62.9 7.2-90.8 28.7l-4.2 40.4 2.5 30.3 55.2 10H161l15.6-1.8 19.2-4.8 10.3-4.4 11.5-8.4c12.6-8.6 15.1-41 1-60.3-10.1-15.6-28.7-27.6-58.1-29.7Zm289.9 28.2c-29.4-27-84.3-32.3-98.5-27.7l-12.7 2.7-20.5 9.4-7.9 6.3-9.2 11c-10.3 13.7-12.1 38.9-8.6 46 4.9 15.3 20.9 26.7 50 31.6l24.3 2.4 24.6-.1 59.8-10.2 3.2-32.8zM263 274c-17 .1-20.8.6-23.1 7.1l1.3 6.1 6 4.8 12.5 2.5c11.4.6 20.2-5.1 21.3-11.7 1.1-6.9-4.5-9.2-18-8.8Zm-122.5-11.9c-6.3 1-8.5-12.2-4.5-20.1 6.8-19.2 35.3-28.2 50.8-19.3 16.5 8.9 21.5 25.5 18.2 33.2l-5 6.6-3.9.5-4.3-1.6-10-14.8c-21-2.7-11.8-12.2-34.1 15zm179.9.2c-6.2 1-8.6-12.4-4.7-20.4 6.5-19.5 34.7-28.6 50.6-19.6 22.7 8.4 21.1 39 17.3 37.8l-3.3 2.4-8.3-1-11.1-14.3-4.8-2.5-12.6-.2-5.6 2.9-10.5 14.5z"/></svg>