<svg xmlns="http://www.w3.org/2000/svg" width="512" height="512" fill="none" style="-webkit-print-color-adjust:exact" viewBox="0 0 512 512"><g clip-path="url(#frame-clip-24b0466e-7c13-801d-8004-20e978703030-rumext-id-1)"><rect width="512" height="512" rx="20" ry="20"/><path d="m498.7 102.3 8.6 1.2 4.7 3.9-7 7 1.4 4.4-2.1 7.8 2 3.2h2v2.2l-2 2.1-6 16.1-.1 11 2 6-1.3 4.9 1.5 5.9 3.6 4.5-12.1 10-3.5 5.5-.9 7.3-7.4 15.4-2.4 13.4-7.8 10.8 1.6 7.2-1.8 1.5v2.3l-3.6 2.3-2.1 5.2 1.8 7-2 8 1 5.7-6.2 5.7-5.6 1.8-3.1 3.8-.3 14.4-3.4 6.5.6 5.9-7.7 19.4.4 8.1 3.7 13.1-1.1 5.6 2.9 11.2-4.9-3-.8 2.2 5.4 7.6 1.6 5.4-6.2 1.3.8 2.6-3.3 1.4 1.2 4.5-7 2.3-8.8.4-.6 3.3-4.1 1.9-13.9-.1-15.6-6.7-5.4 1.3-6.4-2.2-11-5.8-9-7.8-7.3-.6-5.8-2.8-16.5-15.4-8.2-9.9-14.5-24.7-9.6-12.8-2.6-7.2h-1.6l-10-26-4.8-18.1-3.5-6.6-5.7-.4-13.8-5.4-17.8-4.3h-16.7l-1.1 1.4 1.9 3.8-3 2.6 3.1 6.3-5 5.5 1 1.9-2.2 4.6.2 2.1 5.8 5.2-4.5-.9-2 2.6-3-2.3 1.3 5.1-3.7.6-23.8-9.8-5.8-.7-6.8-3.8-10.5-10.2-23.5 6-19.7 1.3-18.2-1.2-16.6-4.2-21.9-9.4-12.3-1.3-8.1-3.3v-1.7l-7.6-6.2-10.2-4.6-14.5-9.9H7.6v-1.7l-7.5-7.4v-3.1h3.6l.8-6.1L58 198.7l11.2-4v-1.4l31.5-10.4 18.6-4 35.4-4.3 44.6-.1 3.7-2.2 2.3-5.6 1.9-.3v-2l12.2-12.2 19.3-13.9 23.8-6.6 35.8-15.9 9.4-2.1 8.9.7-3.1 4.6-1 5.3-6.7 10.5.7 1.4 2.1-.4 10.6-17.8 2-.3.1 3.4-3.8 8.1 1.1 2.6 3.4-6 9.9-2.2 3.4.7-7.5 5.8-8.8 10.3 4.5 9-2.3 10.7 7-1.1 5.1 8.2.1 5.1-7.9 6.6v3.6l4.3 1.7 11.8-7.3 13.8-5.7 13.3-8.5 17.4-6.5 54.2-39.1 7.9-3 7.7 1.4 10.5-2.2zM41.4 211.1l-6.7 2.8-2.8 6.7 2.8 6.7 6.7 2.8 6.7-2.8 2.8-6.7-2.8-6.7z" style="fill:#5850ec"/></g></svg>