<svg xmlns="http://www.w3.org/2000/svg" width="512" height="488" viewBox="0 0 512 488"><path fill="#6364ff" d="m349.3 306-330.2.1-7.8 2.2-6.2 5-4 6.8-1 8 1.6 6.3 4.5 6.5 6.6 4.4 6.3 1.6h331.8l7.8-2.2 6.2-5c5.5-7.7 6.4-11.8 3.4-21.1-3.2-7.3-10.7-12.6-19-12.6Zm0 69-330.2.1-7.8 2.2-6.2 5-4 6.8-1 8 1.6 6.3 4.5 6.5 6.6 4.4 6.3 1.6h331.8l7.8-2.2 6.2-5c5.5-7.7 6.4-11.8 3.4-21.1-3.2-7.3-10.7-12.6-19-12.6Zm0 70-330.2.1-7.8 2.2-6.2 5-4 6.8-1 8 1.6 6.3 4.5 6.5 6.6 4.4 6.3 1.6h331.8l7.8-2.2 6.2-5c5.5-7.7 6.4-11.8 3.4-21.1-3.2-7.3-10.7-12.6-19-12.6Zm142.2-139c-8.3 0-15.7 5.4-18.8 12.8l-1.7 8 .3 143.7 2 6.2c3.2 7.1 12.9 11.9 18.2 11.3 5.3.6 15-4.2 18.2-11.3l2-6.2.3-143.7-2.5-8.7c-3.8-7.6-10.9-12.1-18-12.1Zm-70 0c-8.3 0-15.7 5.4-18.8 12.8l-1.7 8 .3 143.7 2 6.2c3.2 7.1 12.9 11.9 18.2 11.3 5.3.6 15-4.2 18.2-11.3l2-6.2.3-143.7-2.3-8.7c-3.4-7.6-9.9-12.1-18.2-12.1Zm51.7-89.1 11.2-8.8 6.9-9.5 5.5-12L501 172l3.9-37.2-2.7-51-9.1-40.1-5.6-13.4-6.8-11.3-8.1-8.6-9.4-5.5L447 3.5l-10.1 3.8-8.7 7.1-7.4 10-6.2 12.4-5 14.3-5.5 24.2-4 43.5.6 29.6 4.5 28.8 4.6 13.7 6 11.1 7.4 8.7 8.6 6.2.3 41.6 3.8 8.9 7.2 6.2 7.7 2.3 8.1-1 6.9-4 5-6.2 2.3-7.8zM452.5 49.3l5.6 15.3 3.8 18.3 3.3 44.6-3.1 36.4-3.9 12.1-5.7 5.8-5.7-5.8-3.9-12.1-3.1-36.4 4.4-44.6zm-87.3 75.1-54.7-69.2-10.4-4.1h-27.4l-1.1-36.8-6.2-9.2-8.5-4.5-6.6-.5-6.3 1.6-5.4 3.4-5 6.2-2.3 7.8v33.5H68.6l-6.2 1.2-9.8 6.8L.1 128.2 0 255.3l1.1 6.4 7.5 10.2 5.7 3 6.4 1.1h328.6l6.4-1.1 10.2-7.5 4-10.5.1-122.1-1.2-5.8zM122.8 236.1H39.9v-78.2h162.6v78.2zm108.5-118-19.2-25.6h76.6l19.1 25.6zm-70.2-25.6 19.1 25.6H60.6l19.1-25.6zm81.3 65.4h87.7v78.2h-87.7z"/></svg>