<svg xmlns="http://www.w3.org/2000/svg" width="512" height="486" viewBox="0 0 512 486"><path fill="#43488a" d="m372.7 0 29.9 3.1 28.7 9.1 23.6 13.6L477 46.1l17.2 24.4L506 97.9l5.6 29.2-.8 29.5-5.6 24.6-12.1 26.4-14.8 20.6-20.8 19.5-24.8 15.1-23.7 8.7-25.1 4.2-26.9-.5-15.7 72.7 12 5.9 10.3 7.6 8.8 9.3 7.1 10.8 4.8 11.6 2.7 12.4.2 14.7-1.7 11.4-4.5 13.1-5.5 9.6-9.3 11-11.1 9.1-9.6 5.3-13 4.4-14.1 1.8-14.4-.7-15.9-4.4-14.5-8.1-12.9-11.6-9.5-13.9-5.7-15.6-1.9-14.4 1.3-16.1 5.1-15.4-81.2-52.5-13.5 12.8-13.7 9.2-17.1 7.6-16 3.6-16.5.8-18.8-2.5-17.4-5.9-15.9-9.5-19.6-18.8L7 308.2.6 283.1l.5-26.9 7.4-24.7 14.3-21.9 11.1-11.1 12.2-8.9 23.5-10.4 14.7-2.8 16.4-.5 14 1.8 13.5 4 12.9 6.1 14 9.4 12.1 11.4 9 11.4 67.3-33.1-8-31.5-1.2-17.3 1-16.4 7.6-31.5 6.6-15 9.8-16.2 21.6-24.7 12.7-10.1 13.7-8.4 30.4-11.5 15.9-3.1zM252.8 209l-67.2 31.9 3.9 17.9.5 18.7-2.6 16.8-6.4 17.8 81 52.9c10.6-11.4 23.1-18.5 37.5-21.4l17.8-1.4 14.7-72.1-21.4-8.3c-23.3-11.9-41.3-27.5-57.8-52.8Z"/></svg>