<svg xmlns="http://www.w3.org/2000/svg" width="512" height="512" fill="none"><g clip-path="url(#a)"><rect width="512" height="512" fill="#fff" rx="20" ry="20"/><path fill="#f6c177" d="M220.9 472c-7.3-7.3-7.3-19.1 0-26.4l79.5-79.5c7-8.2 17.4-13.3 29-13.3 21.2 0 38.3 17.2 38.3 38.3 0 10-3.8 19.1-10.1 25.9a38.7 38.7 0 0 1 25.1-9.3c21.2 0 38.3 17.2 38.3 38.3 0 10.3-4.1 19.7-10.8 26.6l.134.1c-52.1 52.1-136.6 52.1-188.6 0l-.943-.943ZM272 6.3c8.5-8.5 22.2-8.5 30.7 0L318 21.6c78.1 78.1 78.1 204.9 0 283L195.4 427.2c-8.5 8.5-22.2 8.5-30.7 0l-15.3-15.3c-78.1-78.1-78.1-204.9 0-283zm-3.4 106.4c-30.8 0-55.9 25-55.9 55.9 0 30.8 25 55.9 55.9 55.9 30.8 0 55.9-25 55.9-55.9 0-30.8-25-55.9-55.9-55.9Z"/></g></svg>