<svg xmlns="http://www.w3.org/2000/svg" width="512" height="512" fill="none" viewBox="0 0 512 512"><g clip-path="url(#frame-clip-24b0466e-7c13-801d-8004-20e972840c9a-render-1)"><rect width="512" height="512" rx="20" ry="20"/><path fill="#5850ec" d="M214.3 189.5h-60.8l-9.8-19.6-8.8-11.8-8.9-6-11.6-2.7-72.9.9-7.7 2.4-6.9 4.2-5.6 6-3.8 7.5-.9 15.6 59.9 255.1 13.8 39.4 8.7 12.4 6.7 3 18.4.1M316.7 16l153.8.1 8.7 2 8.9 5.6 4.6 5.8 3.1 9-.6 9.5-127.5 409.6-8.3 15.1-10.6 11-13 7.4-15.6 4-188.68.78L263.2 48.2l8.4-14.3 12.3-10.7 13.9-5.3z" style="fill:#5850ec"/></g></svg>