<svg xmlns="http://www.w3.org/2000/svg" width="512" height="512" viewBox="0 0 512 512"><path fill="#00bc8c" fill-rule="evenodd" d="m397.1 104.8 20.8-9.6 20.8-4.7 20.1.4 16 4.7 16.2 10.8 10.9 13.6 7.9 18.5 2.2 18.9-1.9 13.3-4.7 12.9-7.3 12.1-12.2 13.4-12.8 10.1-31.3 14.8-17.3 4.7-.7 25-3.8 19.5-6.8 18.5-11.3 20 43.2 17.9 3.6 5.7-1.6 6.7-4.4 3.2-4.8.2-47.2-19.1-13.9 14.5-15.9 13.4 28.7 38.2.9 6.1-3.3 5.2-6 1.8-5.6-2.5-29.2-38.6-23.4 12.9-23.9 9.5-9.3 12-10.5 7.4-12.4 4.6L256 422l-10.8-1.1-12.4-4.4-12.2-9-7.6-10.3-24.2-9.4-23.6-12.9-28.4 37.6-3.4 2.4-4.7.5-6.2-4.3-.5-8 28.7-38.3-16.8-14.2-13.9-14.8-48.4 19.6-4.8-.2-4.4-3.2-1.6-6.7 3.6-5.7 44.6-18.5-10.9-19.9-6.5-18.3-3.5-19.3-.3-24.9-27.1-8.3-24.6-13.2-18.5-16.9-8.4-11.8-4.8-10L.2 160l2-21.5 9.5-21 13.6-14.8 11.9-7.1 16-4.7 16.4-.7 17.6 2.9 17.7 6.5 17.7 10.2 14.1 12.3 12.2 14.8 21.8-10.1 25.1-7.5 28.4-4.8 35-2 30.6 1.3 26.3 4 23.5 6.6 24.5 11.1 15.1-17.2zM256 343.5c-15.3 0-26.7 7.6-31.2 19-4.8 11.2-1.4 28.2 7.5 35.7 8 8.4 24.9 11.4 36.7 6.3 12-4.9 20.3-16.3 20.4-29.3 0-13.8-7.4-24.7-19.6-29.3zM178.4 274c-9.7 0-18 5.9-21.6 14.3-3.8 8.6-1.4 19.7 5.1 25.8 6 6.4 17 8.9 25.6 5l7.4-5 5-7.5 1.9-9.1-1.9-9.2-5-7.4-7.4-5.1zm155.4.2c-9.6 0-17.8 5.9-21.3 14.2l-1.9 9.1 1.9 9 4.9 7.4 7.4 5 9 1.8 9-1.8c8.4-3.5 14.2-11.8 14.2-21.4 0-9.7-5.8-17.9-14.2-21.5z"/></svg>