<svg xmlns="http://www.w3.org/2000/svg" width="478" height="513" viewBox="0 0 478 513"><path fill="#6364ff" d="m478 168.4-.5-16.1-3.9-28.8-7-24.5-9.1-20.5L447 61.8l-16.2-18.7-18.1-14.3-19.2-9-27.7-7.8-50.6-8.1L277.7 1 219.2.3 162.4 4l-34.6 4.9-43.4 11-19 8.9L42 48.5 31.1 61.8 20.6 78.5 7.7 110.7l-5.6 26.7-1.5 14.9-.3 98.2 1.6 41.4 3.7 40.5 6.8 38.4 4.7 18.2 12.8 33.7 18 29.3L59 464.7l12.8 11.2 14.5 9.6 16.3 7.9 18.3 6 33.5 7.5 48.2 5.6 45-.6 42.8-6.7 20.2-5.7 19.1-7.7-1.9-42.3-42.6 9-38.6 2.7-48.1-3.5-18.8-4.6-11.4-4.9-14.5-10.9-10.7-15.9-4.5-14-2.5-24.1 42.9 8.4 40.1 4.4 36.2 1.2 40.8-1.5 44.4-4.8 28.2-5.5 26.2-9.1 23.5-11.9 13.7-9.3 17.1-15.1 12.1-16.2 5-10.9 4.4-23.2 4.2-37.5zM392.4 312h-53.2V181.3l-2.1-15.4-5.5-12-8.2-8.6-10-5-10.8-1.4-10.8 2.3-10 6.1-8.2 9.9-5.5 14-2.1 18v71.5h-52.9l-.5-81-1.6-8.5-5.5-14-8.2-9.9-15.3-7.8-16.3.8-10 5-8.2 8.6-3.1 5.6-3.9 13.7-.6 138.8H86.6l.4-140.9 4.1-28.8 9.3-21.2 7.2-9.3 9.8-9 17.4-9.8 19.4-5.2 20.3-.3 19.6 4.9 17.7 10.3 14.4 16.1 13.3 22.3 13.2-22.3 9.3-11.4 10.8-8.8 12.2-6.3 12.9-3.8 20.2-1.4 19.9 3.7 18.2 8.3 10.5 8 11.9 14.1c11.1 45.2 15-39.8 13.8 190.8Z"/></svg>