<svg xmlns="http://www.w3.org/2000/svg" width="512" height="512" fill="none"><g clip-path="url(#a)"><rect width="512" height="512" rx="0" ry="0"/><path fill="#2de2e6" d="M241.1 41.6 2.3 454.2 0 462.8l2.3 8.6 6.3 6.3 8.6 2.3h477.6c11.2-1.3 13.6-5.8 16.4-11.9l.8-6.2-1.9-6.9L270.9 41.6l-6.3-6.3L256 33l-8.6 2.3zM256 204.8l-37.9 65.9-2.8 11.8 2.8 11.8 37.9 65.9 37.9-65.9 2.8-11.8-2.8-11.8zm0-51.8 149 259h-59.6l-44.7-77.7L256 412l-44.7-77.7-44.7 77.7H107z" style="fill:#2de2e6;fill-opacity:1"/></g></svg>