<svg xmlns="http://www.w3.org/2000/svg" width="512" height="512" fill="none" style="-webkit-print-color-adjust:exact" viewBox="0 0 512 512"><g clip-path="url(#frame-clip-24b0466e-7c13-801d-8004-20e978d4dcf7-rumext-id-18)"><rect width="512" height="512" rx="20" ry="20"/><path d="m190.2 359.3-12.8-1.5-14.6-5.5-14.3-10.8-11.8-14.5-7.4-2.5-2.6 1.8-1 2.9-.2 46.3-2.2 14.6-8.2 17.5-15.8 16.3-10.4 6.1-11.4 3.9-12.4 1.6-12.6-.7-11.7-3-10.8-5.2-9.9-7.5-8.5-9.5-8.7-17.2L0 373V137l2.3-15 5.8-13.9 6.8-9.6 8.2-8.1 19.1-10.5 11.6-2.8 11.6-.5L86.5 81l11.7 6.5 10.5 9.3 69.8 80.7 6.4 4.1 6.8.8 6.2-1.8 5.7-4.3 66.2-77.4 15-12.9 17.2-7.5 16.5-2 16 2.1 15.6 6.4 11.8 9.2 10.6 13.9 6.1 13.9 2.3 13.1.1 240.4-2.3 14.6-5.6 13.3-7.2 10.1-11.2 10.4-10.4 6.1-11.4 3.9-12.4 1.6-14.9-1.1L294 431l-10.6-5.7-14.9-13.7-10.2-19.2-2.8-16.9-.1-45.1-1-4-2.8-2.1-3.6.5-5.5 3.6-10.8 14.1-11.6 9-14 5.8zm267.5-174.8c-25.1 1.1-48.8-18.8-52.7-43.2-5.3-25.6 8.5-50.8 32-60.8 23.2-9.8 51.9-1.3 66 20.2 14 19.7 11.7 51.1-7 68.3-10.6 10.3-23.4 15.5-38.3 15.5Zm.6 11 16.7 2.6 14.6 7.6 13.4 14.2 7 15.1 2 14.9v131.7c.8 21.6-14.1 42.2-33.1 50-11.9 9-62.7 5.4-72.9-35.1l-2-14.9V249.9l1-10.8 3-10 5-9.2 7-8.4c10.6-10.7 23.4-16 38.3-16Z" style="fill:#86b300"/></g></svg>