<svg xmlns="http://www.w3.org/2000/svg" width="512" height="512" viewBox="0 0 512 512"><path fill="#5f35ae" fill-rule="evenodd" d="m451.5 0 19.1 3.1 8.7 3.7 11.6 7.8 9.4 10.2 4.9 7.9 5 13.3 1.6 9.5.2 396-3.1 19.1-3.7 8.7-7.8 11.6-10.2 9.4-12.2 6.9-13.7 4-400.8.8-19.1-3.1-8.7-3.7-11.6-7.8-9.4-10.2L4.8 475l-4-13.7-.8-9.8v-391l3.1-19.1 3.7-8.7 7.8-11.6 10.2-9.4 7.9-4.9 13.3-5L55.5.2zM336.2 195.1l-21.7-15.3-23.7-9.9-25-4.4-25.3.9-24.7 6.2-23.1 11.7-14.2 10.8-16.3 20.7-11.6 24.8-6.9 29-2.4 33 2.4 33.1 5.2 23.5 10.7 25.6 15.3 21.5 17.8 14.6 15.2 8.3 24.2 8.1 25.2 2.7 25.2-2.7 24.3-8.1 15.2-8.3 14.2-10.8 16.2-20.8 9.7-19.6 7.9-28 3-25.4-.5-34c-5.3-46.9-16.2-64.5-36.3-87.2Zm-78.9 26c20.7 1 37.7 12.4 43.5 48.4l2.9 37.7-2.9 37.7-4.5 17.5-4.2 9.5-8 11-6.5 5.1c-19 13.1-44.6 3-55.1-16.1l-5.9-14.9-2.8-12.1-2.9-37.7 2.9-37.7 2.8-12 5.9-14.9c8.4-17.2 22.1-20.6 34.8-21.5Zm32.1-141.4c-14.2-7.7-25-9.3-46.5-6.4l-17.6 6.4-3.9 13.3-1.2 15.3c3 13.4-2.5 30.2 18.6 31.7 10.9 2.7 35.1 4 50.6-5.9 5.2-11.2 6.4-30.5 3.6-42.5z"/></svg>