<svg xmlns="http://www.w3.org/2000/svg" width="512" height="512" viewBox="0 0 512 512"><path fill="#7871ff" d="M486.8 385.6c13.8-38.8-7-65.6-55.5-79.3-46.1-13.7-137.9-4.1-173.5 22.8-34.2 24.8-14.4 52.9 44.6 82.1l23.5 9.6 26.4 7.9 23.8 4.5 39.3 1.4 16.8-2.8 15.5-5.1 13.1-7.1 11.1-9.6 8.7-11.3zm-107-40.4c12.9 6.8 17.6 16.3 14.4 28.9-3.5 12.7-12.8 19-29 21.2-26.4 9.3-97.6-27.3-92.2-30.7-7.1-9.3-3.3-16 22.3-23.4 18-5.5 56.2-6.3 71.1-1.1zM358.9 76.8l-4.6-27.6-10.5-20.5-7.9-9-9.5-7.4-22.9-9.8L290.4.2c-24.6-6.3-81.6 21.7-99.1 97.4L183 134l-4.4 38.5v38.3l4.8 33.3 8.7 26.1 6.4 9.9c9.4 14 33 16.9 63.3-8.8l14.1-12.8 26.7-31.1 23.4-36.3 19.1-40.9 10.8-37.5zm-97.3 41.5c9.5 2.9 23.9 5.7 25.5 36.5 1.8 24.8-27.5 82.9-52.4 99.8-11.8 8-18.7 6.6-22.8-5.1-10.1-24.3-.8-86.7 12.1-106.9 11.8-20.8 21.3-25.8 37.6-24.3ZM32.2 171.5C21 185 17.1 222.1 31.6 245l16.5 22.2 13.1 12 15.4 10.9 17 9.2 15.7 6.3 16.6 4.3c34.8 4.6 42.5-8.1 37.6-32.4l-4.2-13.6-18.6-33.9-25.5-31.9-26-22.7-22.4-12-9.9-2.2-10.6.6-8.4 4.1zm37.9 50.9 5.6-5.8 8.9-1.1 10.6 4.1c12.7 6.5 30.1 24.7 41.2 43.4 9.6 17 9.4 25.1-2.6 25.7-11.8.9-37.2-10.6-50.1-22.7-11.6-10.1-17.8-22.8-16.5-32.9zM197.3 380c-14.6-2.1-29.2 16.6-31.7 43.1-3.6 23.4 5.7 54.6 17.1 65.3l8.4 8.2 9.8 6.5 20.7 7.5 13.5 1.4 12.3-1.9 6.4-3.3 4.9-5.1 4.8-12.9-.6-19-6.5-23.1c-13-34.9-40.8-65.5-59.1-66.7Zm-7.1 31.6 5.2-8.7 6.8-1.7 8 5.7 9.1 12.4 7.8 15.7 4.6 16.5-.6 13-5 6.2-7.7 1.7c-10.5-.4-19.2-5.3-24.6-13.8l-4.3-9.6-2.3-12.5.2-12.8zm-55.8-55.7-10.5-4.5-15.9-1.2-16.1 3.5c-15 5.5-21.6 14.3-21.9 24.7 0 10.6 7.7 22.2 19 31.2 10.1 7.8 24.8 7.3 35.9-2l11.6-13.4 6-15.2-.8-13.4zm-5.1 10.6c3.6 2.6.3 15.1-6.3 21.4-8.2 7.5-12.3 8-18.6 6.3-4.1-.4-12.6-11.8-11.4-14.5-2.3-1.3 3.6-15.4 24.6-16.1l8.6.8z"/></svg>