<svg xmlns="http://www.w3.org/2000/svg" width="512" height="512" fill="none"><g clip-path="url(#a)"><rect width="512" height="512" rx="20" ry="20"/><path fill="#ff4500" d="m243 20.1 19.8.9 29.4 4.1 19.3 4.7 28.3 9.5 18.2 8.1 26.1 14.4 24.5 17 15.1 12.7-205.6 178.8-4.2 5.7-1.9 7.1 2.1 9.8 5.9 6.7 189.4 132.9-37.6 24.9-41.1 18.6-43.6 11.8-44.7 4.1-38.5-3.1-18.6-3.8-35.8-11.7-33.2-16.8-15.5-10.1-28.5-23.6-24.5-27.5-10.6-15.1-17.6-32.4-12.4-35.1-3.9-18.4L0 256l3.3-38.3 4-18.4 12.4-35.1 17.8-32.5 10.7-15 24.7-27.5 28.6-23.6L117 55.4l33.4-16.8L186.1 27l18.6-3.8zM465.4 132c14.8 21.4 19.9 24.3 36.6 69.6 11 31.9 12.9 79.6 5.6 110.3-4.3 15.1-4.6 32.9-32.9 78.6l-26.6 32.6L250 283.6zM127.3 353.3l-28.9 23.4L97 384l4.6 6.9 5 1.6 5.2-1.2 30.3-24.3c4.8-5.1-1.4-16.6-8.3-15.8zm321.3-172.7c19.6 39 26.4 78.9 20.6 118.3l-6.4 27-9.8 23.6-14.2 24.5 1.6 7.4 3.1 2.8 4 .9 6.5-2 5.3-5.7 12.3-21.4 7.5-18.4 8.5-29.9 3.1-37.7-1.1-20.5-3.9-23.9-5.5-19.4C467 159.5 454 168 448.6 180.6ZM196.2 322.7l-10.9 26.2 2.6 6.5 7 3.2c7.1-7 1.2 15.2 19.4-31.7.4-6.9-7.7-11.7-13.7-8.7zm166.4-13.1c7.1 13.4-19.9 5.7 45.5 25.6l6.6-1.4 4.3-5.4-.4-8.3-5.8-4.9-39.3-12.4-6.7 1.3zm-287-39.1c-61.2 5.6-36.1 10.4-41 19.5l3.4 3.9 5 1.5 38.2-5.6 4.9-5.5v-7L82 272zm36.2-38.1 1.5 7 6.3 3.5 25.3 2 4.8-2.3 2.5-5.4-1.4-7-6.3-3.6-25.4-2-4.7 2.4zm54.7-81.1-4.2 6.3 1.6 6.8 19.5 26.8c3.8 3.8 13.2 3 15.5-5.8l-1.6-6.8-19.5-26.8-5.2-2.2zM65 139.1c2 14.6-19.9-1.3 33.1 38.8l6.6 1 5.8-3.6 2.3-7.6-3.7-6.6-31.7-24.6-6.6-1zm243.1-56.2-16.3 30.3 1.4 7 6.7 4.3 5-.4 4-3 17.2-31.6c2.5-6.3-7.6-14.1-13.1-10.9zM204.8 64.4l-6.7 3.2-2.3 7.5 5.6 41.8 3.9 5.2 6.4 1.4 6.6-3.1 2.3-7.6-5.6-41.7-3.9-5.3z" style="fill:#ff4500;fill-opacity:1"/></g></svg>