<svg xmlns="http://www.w3.org/2000/svg" width="512" height="512" viewBox="0 0 512 512"><path fill="#ff5c34" d="m256 0-27.3 1.4L202 5.6l-25.9 7-18.9 7.1-24.7 11.8L115.2 42 94 57.7 74.7 75.1 57.3 94.5l-15.4 21.3-13.6 23.3-15.7 37.3-7 25.8-4.2 26.7L0 256.3l.8 20.6 3.5 26.9 6.3 26 9.1 25.3 8.6 18.4 13.6 23.3L57.3 418l17.4 19.3L94 454.7l21.2 15.4 23.4 13.6 18.6 8.6 18.9 7.1 25.9 7 26.7 4.2L256 512l27.3-1.4 26.7-4.2 25.9-7 37.5-15.7 23.4-13.6 21.2-15.4 19.3-17.4 17.4-19.3 15.4-21.2 13.6-23.3 15.7-37.3 7-25.8 4.2-26.7 1.4-27.4-1.4-27.4-4.2-26.7-7-25.8-7.1-18.9-8.6-18.4-13.6-23.3-15.4-21.3-17.4-19.4L418 57.7 396.8 42l-17.3-10.5-24.7-11.8C334.2 10.2 290.2-1.2 256 0Zm-40.6 156 78.1.7 16.2 3.8 16.8 8.2 18.5 16.2c21.8 17.3 20 68.6 11.9 79.2-9.5 20.5-23 33.3-45.3 42.8l-16 4.3-59.7.9L169 376l.8-183.8c5.3-21.3 23.2-36.7 45.6-36.2Z"/></svg>