<svg xmlns="http://www.w3.org/2000/svg" width="512" height="512" fill="none"><g clip-path="url(#a)"><rect width="512" height="512" rx="20" ry="20"/><path fill="#5bcefa" fill-rule="evenodd" d="m482.8 494.5.5 17.5H28.8l4.2-85.2L44.7 335 59 269.3l17.6-53.6L90 186.4l18.2-32.9 21.9-34.2 20.8-28.4 27-32.2 25-26c47.9-40.2 53.1-50.6 115.5 9.5l29 32.2 30.7 40 27.5 42.4 18.1 33.4 12.1 27.6 12.5 35.4 16 65.8 10.1 66.2zM328.6 210.4l20.5 25.5 3 6.2-.1 7.7-7.8 28.8 21.9-14.4 19.7 44 12.6 35.3 9.2 34.4 1.8 20-3.7 10.7-2.2.8-2.2-1.6-13.5-22.5-19.5-25.7 3.7-41.8-32.1 16.6-18.2-12.9-3-41.8-1.3-.9-26.4 29.3-3.6 1.3-14.2-4.2-16.4-33.9-16.4 34.3-14.2 3.8-3.7-1.4-27.4-28.5-3 42-17.9 12.6-3.1-.1-29.3-16.1 3.7 41.8-18.3 23.6-17.1 26.2-2.1-1-3.6-9.7 1.5-19.4 8.2-32.3 12.6-35.4 21.2-47.3 21.5 14.1-8.1-30 .1-6.2 2.3-4.9 21.3-27.1 24.6 31.3 4.3-54.4 12.1-6.7 12.5-4.6 17.9 36.9 18.9-36.9 15 5.9 10.3 6.6 3.3 53.3z" clip-rule="evenodd" style="fill:#5bcefa"/></g></svg>