<svg xmlns="http://www.w3.org/2000/svg" width="512" height="512" viewBox="0 0 512 512"><path fill="#1d7c79" fill-rule="evenodd" d="m447 0 20.5 3.3 9.4 4 12.4 8.4 10.2 10.9 5.2 8.5 6.4 19.4v403l-4.2 14.8-7.4 13.1-14.1 14.1-13.1 7.4-14.8 4.2-217.5.9-10.9-39.8-1.7-12.8.3-14.9 2.2-11.9 4.5-11.7 6.2-10.6 10.4-11.8 17.8-11.4c10.785-4.42 16.394-6.535 24.2-9.3l75-3.6 118.4 5.5-31.3-71.2-12.1-22.1-28.5-42.7-18-23.7-18.4-20.5-40.5-38.9-33.4-27.9-28.5-18.9-30.9-14.9-30.6-9-29.7-4.1-41.8-1-42.4 3.4-28.2 5.6-25.2 8.2-22.1 10.9L0 131.5l.2-71.8 4.9-20 7.5-13.1 14-14.1 17.9-9.2L59.7.2ZM0 306.2v141.3zm177.8-88.8c13 0 24.2 7.9 29 19.2 5.2 11.5 1.9 26.4-6.7 34.6-8.2 8.6-23.1 11.9-34.6 6.7l-10-6.7-6.7-10.1-2.5-12.2 2.5-12.3 6.7-10 10-6.7z"/></svg>