<svg xmlns="http://www.w3.org/2000/svg" width="512" height="512" fill="none"><g clip-path="url(#a)"><rect width="512" height="512" rx="20" ry="20"/><path fill="#ce4b99" d="m411.8 59.3-6.1 17.8-36.2 164.3-9.5 31.8-3.2 6.6-3.6 2.7-3.1-1.1-2-4.6L312.8 144l-4.7-4.4-14.3-1.7-50.7 3.2-13.3 2.3-6.4 4.1-2.5 10.3-10.2 107.3-4.2 16.5-2.6 3.8-3.2 1.3-5.2-4.1-5.6-11L112 87.5l-6.8-12.7-7.6-2.8-9.3 2.3-72.6 25.1-11.1 4.7-3.4 3.1-.6 8.5L7 132.9l131.6 307.4 4.8 9.1 3.7 3.6 11.3 2 45.7-1.5 23-1.9 8.5-3.5 6.9-10.6 7.7-18.1 25.4-80.7 3-4.9 3.5 2.9 33 100.3 4.3 6.6 5.9 2.7 6.8.7 65-3.8 9.8-3.5 6.6-7.5L429 405l12.8-27.8 12.2-32.7 24.6-85 28-136.4 5.4-35.9-2.4-8.9-10.5-5.1L421 57.5l-5.2-.3z" style="fill:#ce4b99;fill-opacity:1"/></g></svg>