<svg xmlns="http://www.w3.org/2000/svg" width="511" height="512" viewBox="0 0 511 512"><path fill="#21759b" d="m255.5 0 27.3 1.4 26.6 4.2 25.7 6.9 18.8 7 18.3 8.6 23.3 13.7 21.3 15.5 19.4 17.5 17.5 19.4 15.5 21.3 13.7 23.4 8.5 18.3 9.1 25.2 6.2 25.9 3.5 26.8v41.2l-3.5 26.8-6.2 26.1-9.1 25.3-11.8 24.6-10.4 17.4-15.5 21.3-17.5 19.4-19.4 17.5-21.3 15.5-23.3 13.7-18.3 8.6-18.8 7-25.7 6.9-26.6 4.2-27.3 1.4-27.4-1.4-26.6-4.2-25.9-6.9-18.9-7-24.5-11.8-17.3-10.5-21.1-15.5-19.2-17.5-17.4-19.4-15.5-21.3-10.4-17.4-11.8-24.6-9-25.3-6.2-26.1-2.9-20L0 255.7l1.4-27.4 2.9-20 6.2-25.9 9-25.2 8.6-18.3 13.6-23.4 15.5-21.3 17.4-19.4 19.2-17.5 21.1-15.5 17.3-10.5 24.5-11.8C186.9 5.6 232.2-.8 255.5 0Zm-.3 26.2-29.1 1.7-28.3 5.4-27.3 8.8-26.3 12.4-23.8 15.1-21.5 17.6-19.2 19.9-16.9 22.5 25.1.4 52.9-3 4.2 1.2 3.2 3.9.9 7.1-4.3 5.6-30.2 3.7 83.2 248.3 50.5-150.6-36-97.7-27.9-3.7-4.1-5.6.7-7.1 3-3.9 4-1.2 59.8 3.2 65.3-3.2 5.3 1.8 3.2 8.5-4 7.2-30.8 4 83.3 246.4 34.3-114 4.4-19.7 1.6-16.9-1.2-16.8-4.5-18-8.3-19.8-23.6-43.3-3.6-13.6v-12.2l5-14.5 10.3-12.2 12-6.3 13.9-.9L377.3 61l-37.5-19.1-20.4-6.9-20.9-4.9-21.4-2.9zm202.1 119.3.6 39-7.7 41-79.5 228.9 20.1-13.2 18.4-14.8 28.1-30L451 377l12-21.5 14.9-39.6 7.2-42 .7-24.5-1.8-23c-5.4-27.9-2.5-31.6-26.7-80.9Zm-412 16.8c-6.6 12.5-16.6 46.2-17.7 59.7-4.9 2.4-1.3 87.2 4.9 91.9l5.8 18.4 10.2 23.8 9.6 17.3L72.6 395l25.1 28.4c24.4 21.4 27.9 23.7 57.3 39.4zm214 113.1-68.7 200.9 35.6 7.6 37.2 1.8 34.6-3.9 33.9-9.2z"/></svg>