<svg xmlns="http://www.w3.org/2000/svg" width="512" height="512" fill="none" style="-webkit-print-color-adjust:exact" viewBox="0 0 512 512"><g clip-path="url(#frame-clip-24b0466e-7c13-801d-8004-20e8f001f723-rumext-id-21)"><rect width="512" height="512" rx="20" ry="20"/><path fill="#4a4a4a" d="m495.4 288.9-9.9 23.7-11.9 22.4-13.8 20.8-15.3 18.8-17 16.7-16 12.7-19.5 12-18.1 8.2-26.9 7.1-27.4 1.6-22.1-4.2-17-9.5-12.2-13.9-8.9-19.4-4-21.7.4-33.5h-1.3l-10.2 23.4-15.2 24-16.7 19.5-17.5 14.8-19.1 11.5-18.1 6.7-20.2 2.5-19.9-2.1-18.6-7.9-15.6-14.7-10.2-20.1-5.2-24.2-1-24.9 1.9-41.9L84.6 154l-.6-23.8-3.2-10-5-5.2-6.5-2.2-7.6.4-8.6 3.8-9.5 8.3-9 13.2-8.3 17.3-7.4 22.5-18.9-4 10.3-33.1 12.5-23.6 15-18.2 17.3-13.2 19.2-6.7 22.1-.3 17.3 5.4 7.1 4.7 7.5 7.8 5.9 9.8 4.1 11.7 2.3 13.6.5 18.4-2.8 46.6-14.6 137.1-.4 32.4 4.6 16.2 9.6 10.4 11.8 3.6L167 395l12.9-4.8 12.8-7.6 12.5-10.4 9.7-10.6 10.9-15.1 10.2-17.7 15.8-38.7 11-42.5 6.3-48.8 1-57.4-4.3-55.3h58l2.6 29.8-1.3 40.7-5.9 56.1-13.4 96-1.8 29.2.7 22.7 5.8 20.1 4.8 6.7 6.4 5.5 14.6 4.5 20.6-1.2 18.2-5.5 16.5-8.7 15.7-11.5 16-15.8 14.8-18.7 11.9-19.1 11.2-23.3 8.1-23 7.5-34.4 2.4-35-2.8-31.2-7.6-23.6-10.2-14-12.2-8.2-6.1 9-9.4 5.7-12.4 2.2-10.6-2-6.5-3.5-8.9-11.5-1.9-7.7.1-9 2.4-8.8 4.9-7.4 7.3-6.3 8.8-4 10.4-2.1 24.1 1.6 19.8 8.7 17.3 15.7 12.8 21.2 8.5 25.7c9.8 37.3 4.8 94.7-11.6 137.2Z" style="fill:#4a4a4a"/></g></svg>